<?xml version="1.0" encoding="UTF-8" standalone="no"?>
<!DOCTYPE svg PUBLIC "-//W3C//DTD SVG 1.1//EN"
 "http://www.w3.org/Graphics/SVG/1.1/DTD/svg11.dtd">
<!-- Generated by graphviz version 14.0.5 (20251129.0259)
 -->
<!-- Title: src/src/fluxScheme.cpp Pages: 1 -->
<svg width="747pt" height="140pt"
 viewBox="0.00 0.00 747.00 140.00" xmlns="http://www.w3.org/2000/svg" xmlns:xlink="http://www.w3.org/1999/xlink">
<g id="graph0" class="graph" transform="scale(1 1) rotate(0) translate(4 136)">
<title>src/src/fluxScheme.cpp</title>
<!-- Node1 -->
<g id="Node000001" class="node">
<title>Node1</title>
<g id="a_Node000001"><a xlink:title="通量格式相关函数的实现文件">
<polygon fill="#999999" stroke="#666666" points="158.62,-132 39.13,-132 39.13,-112 158.62,-112 158.62,-132"/>
<text xml:space="preserve" text-anchor="middle" x="98.88" y="-118.5" font-family="Helvetica,sans-Serif" font-size="10.00">src/src/fluxScheme.cpp</text>
</a>
</g>
</g>
<!-- Node2 -->
<g id="Node000002" class="node">
<title>Node2</title>
<g id="a_Node000002"><a xlink:href="../../d4/dc3/macro_8hpp.html" target="_top" xlink:title="定义项目中使用的宏、枚举类型和通用函数">
<polygon fill="white" stroke="#666666" points="380.75,-76 319,-76 319,-56 380.75,-56 380.75,-76"/>
<text xml:space="preserve" text-anchor="middle" x="349.88" y="-62.5" font-family="Helvetica,sans-Serif" font-size="10.00">macro.hpp</text>
</a>
</g>
</g>
<!-- Node1&#45;&gt;Node2 -->
<g id="edge1_Node000001_Node000002" class="edge">
<title>Node1&#45;&gt;Node2</title>
<g id="a_edge1_Node000001_Node000002"><a xlink:title=" ">
<path fill="none" stroke="#63b8ff" d="M142.88,-111.53C189.28,-101.55 261.87,-85.93 307.61,-76.09"/>
<polygon fill="#63b8ff" stroke="#63b8ff" points="308.1,-79.57 317.14,-74.04 306.63,-72.72 308.1,-79.57"/>
</a>
</g>
</g>
<!-- Node9 -->
<g id="Node000009" class="node">
<title>Node9</title>
<g id="a_Node000009"><a xlink:title=" ">
<polygon fill="#e0e0e0" stroke="#999999" points="55.75,-20 0,-20 0,0 55.75,0 55.75,-20"/>
<text xml:space="preserve" text-anchor="middle" x="27.88" y="-6.5" font-family="Helvetica,sans-Serif" font-size="10.00">algorithm</text>
</a>
</g>
</g>
<!-- Node1&#45;&gt;Node9 -->
<g id="edge18_Node000001_Node000009" class="edge">
<title>Node1&#45;&gt;Node9</title>
<g id="a_edge18_Node000001_Node000009"><a xlink:title=" ">
<path fill="none" stroke="#63b8ff" d="M84.02,-111.67C72.31,-103.58 56.42,-90.87 46.88,-76 38.12,-62.37 33.28,-44.58 30.69,-31.05"/>
<polygon fill="#63b8ff" stroke="#63b8ff" points="34.2,-30.87 29.13,-21.57 27.3,-32.01 34.2,-30.87"/>
</a>
</g>
</g>
<!-- Node15 -->
<g id="Node000015" class="node">
<title>Node15</title>
<g id="a_Node000015"><a xlink:href="../../d7/dcf/flux_scheme_8hpp.html" target="_top" xlink:title="定义通量格式相关的函数和类">
<polygon fill="white" stroke="#666666" points="142.12,-76 55.62,-76 55.62,-56 142.12,-56 142.12,-76"/>
<text xml:space="preserve" text-anchor="middle" x="98.88" y="-62.5" font-family="Helvetica,sans-Serif" font-size="10.00">fluxScheme.hpp</text>
</a>
</g>
</g>
<!-- Node1&#45;&gt;Node15 -->
<g id="edge14_Node000001_Node000015" class="edge">
<title>Node1&#45;&gt;Node15</title>
<g id="a_edge14_Node000001_Node000015"><a xlink:title=" ">
<path fill="none" stroke="#63b8ff" d="M98.88,-111.59C98.88,-105.01 98.88,-95.96 98.88,-87.73"/>
<polygon fill="#63b8ff" stroke="#63b8ff" points="102.38,-87.81 98.88,-77.81 95.38,-87.81 102.38,-87.81"/>
</a>
</g>
</g>
<!-- Node3 -->
<g id="Node000003" class="node">
<title>Node3</title>
<g id="a_Node000003"><a xlink:title=" ">
<polygon fill="#e0e0e0" stroke="#999999" points="171.75,-20 134,-20 134,0 171.75,0 171.75,-20"/>
<text xml:space="preserve" text-anchor="middle" x="152.88" y="-6.5" font-family="Helvetica,sans-Serif" font-size="10.00">array</text>
</a>
</g>
</g>
<!-- Node2&#45;&gt;Node3 -->
<g id="edge2_Node000002_Node000003" class="edge">
<title>Node2&#45;&gt;Node3</title>
<g id="a_edge2_Node000002_Node000003"><a xlink:title=" ">
<path fill="none" stroke="#63b8ff" d="M318.59,-57.18C286.77,-49.11 235.77,-35.88 183.03,-20.53"/>
<polygon fill="#63b8ff" stroke="#63b8ff" points="184.15,-17.21 173.57,-17.75 182.18,-23.92 184.15,-17.21"/>
</a>
</g>
</g>
<!-- Node4 -->
<g id="Node000004" class="node">
<title>Node4</title>
<g id="a_Node000004"><a xlink:title=" ">
<polygon fill="#e0e0e0" stroke="#999999" points="235.5,-20 190.25,-20 190.25,0 235.5,0 235.5,-20"/>
<text xml:space="preserve" text-anchor="middle" x="212.88" y="-6.5" font-family="Helvetica,sans-Serif" font-size="10.00">cstring</text>
</a>
</g>
</g>
<!-- Node2&#45;&gt;Node4 -->
<g id="edge3_Node000002_Node000004" class="edge">
<title>Node2&#45;&gt;Node4</title>
<g id="a_edge3_Node000002_Node000004"><a xlink:title=" ">
<path fill="none" stroke="#63b8ff" d="M326.01,-55.59C303.94,-46.89 270.92,-33.88 246.24,-24.15"/>
<polygon fill="#63b8ff" stroke="#63b8ff" points="247.55,-20.91 236.96,-20.49 244.98,-27.42 247.55,-20.91"/>
</a>
</g>
</g>
<!-- Node5 -->
<g id="Node000005" class="node">
<title>Node5</title>
<g id="a_Node000005"><a xlink:title=" ">
<polygon fill="#e0e0e0" stroke="#999999" points="306.62,-20 253.12,-20 253.12,0 306.62,0 306.62,-20"/>
<text xml:space="preserve" text-anchor="middle" x="279.88" y="-6.5" font-family="Helvetica,sans-Serif" font-size="10.00">iostream</text>
</a>
</g>
</g>
<!-- Node2&#45;&gt;Node5 -->
<g id="edge4_Node000002_Node000005" class="edge">
<title>Node2&#45;&gt;Node5</title>
<g id="a_edge4_Node000002_Node000005"><a xlink:title=" ">
<path fill="none" stroke="#63b8ff" d="M337.68,-55.59C327.54,-47.77 312.88,-36.46 300.86,-27.19"/>
<polygon fill="#63b8ff" stroke="#63b8ff" points="303.18,-24.56 293.13,-21.22 298.91,-30.1 303.18,-24.56"/>
</a>
</g>
</g>
<!-- Node6 -->
<g id="Node000006" class="node">
<title>Node6</title>
<g id="a_Node000006"><a xlink:title=" ">
<polygon fill="#e0e0e0" stroke="#999999" points="375.5,-20 324.25,-20 324.25,0 375.5,0 375.5,-20"/>
<text xml:space="preserve" text-anchor="middle" x="349.88" y="-6.5" font-family="Helvetica,sans-Serif" font-size="10.00">memory</text>
</a>
</g>
</g>
<!-- Node2&#45;&gt;Node6 -->
<g id="edge5_Node000002_Node000006" class="edge">
<title>Node2&#45;&gt;Node6</title>
<g id="a_edge5_Node000002_Node000006"><a xlink:title=" ">
<path fill="none" stroke="#63b8ff" d="M349.88,-55.59C349.88,-49.01 349.88,-39.96 349.88,-31.73"/>
<polygon fill="#63b8ff" stroke="#63b8ff" points="353.38,-31.81 349.88,-21.81 346.38,-31.81 353.38,-31.81"/>
</a>
</g>
</g>
<!-- Node7 -->
<g id="Node000007" class="node">
<title>Node7</title>
<g id="a_Node000007"><a xlink:title=" ">
<polygon fill="#e0e0e0" stroke="#999999" points="433.88,-20 393.88,-20 393.88,0 433.88,0 433.88,-20"/>
<text xml:space="preserve" text-anchor="middle" x="413.88" y="-6.5" font-family="Helvetica,sans-Serif" font-size="10.00">string</text>
</a>
</g>
</g>
<!-- Node2&#45;&gt;Node7 -->
<g id="edge6_Node000002_Node000007" class="edge">
<title>Node2&#45;&gt;Node7</title>
<g id="a_edge6_Node000002_Node000007"><a xlink:title=" ">
<path fill="none" stroke="#63b8ff" d="M361.02,-55.59C370.2,-47.85 383.43,-36.69 394.36,-27.47"/>
<polygon fill="#63b8ff" stroke="#63b8ff" points="396.31,-30.4 401.7,-21.27 391.8,-25.05 396.31,-30.4"/>
</a>
</g>
</g>
<!-- Node8 -->
<g id="Node000008" class="node">
<title>Node8</title>
<g id="a_Node000008"><a xlink:title=" ">
<polygon fill="#e0e0e0" stroke="#999999" points="116.38,-20 73.38,-20 73.38,0 116.38,0 116.38,-20"/>
<text xml:space="preserve" text-anchor="middle" x="94.88" y="-6.5" font-family="Helvetica,sans-Serif" font-size="10.00">vector</text>
</a>
</g>
</g>
<!-- Node2&#45;&gt;Node8 -->
<g id="edge7_Node000002_Node000008" class="edge">
<title>Node2&#45;&gt;Node8</title>
<g id="a_edge7_Node000002_Node000008"><a xlink:title=" ">
<path fill="none" stroke="#63b8ff" d="M318.73,-59.73C277.16,-52.48 201.05,-38.5 127.58,-20.51"/>
<polygon fill="#63b8ff" stroke="#63b8ff" points="128.78,-17.2 118.23,-18.19 127.1,-24 128.78,-17.2"/>
</a>
</g>
</g>
<!-- Node2&#45;&gt;Node9 -->
<g id="edge8_Node000002_Node000009" class="edge">
<title>Node2&#45;&gt;Node9</title>
<g id="a_edge8_Node000002_Node000009"><a xlink:title=" ">
<path fill="none" stroke="#63b8ff" d="M318.52,-60.91C267.83,-54.1 164.52,-39.48 67.31,-20.35"/>
<polygon fill="#63b8ff" stroke="#63b8ff" points="68.08,-16.93 57.59,-18.41 66.71,-23.8 68.08,-16.93"/>
</a>
</g>
</g>
<!-- Node10 -->
<g id="Node000010" class="node">
<title>Node10</title>
<g id="a_Node000010"><a xlink:title=" ">
<polygon fill="#e0e0e0" stroke="#999999" points="500,-20 451.75,-20 451.75,0 500,0 500,-20"/>
<text xml:space="preserve" text-anchor="middle" x="475.88" y="-6.5" font-family="Helvetica,sans-Serif" font-size="10.00">cassert</text>
</a>
</g>
</g>
<!-- Node2&#45;&gt;Node10 -->
<g id="edge9_Node000002_Node000010" class="edge">
<title>Node2&#45;&gt;Node10</title>
<g id="a_edge9_Node000002_Node000010"><a xlink:title=" ">
<path fill="none" stroke="#63b8ff" d="M371.82,-55.59C391.58,-47.13 420.87,-34.58 443.34,-24.94"/>
<polygon fill="#63b8ff" stroke="#63b8ff" points="444.55,-28.23 452.37,-21.08 441.79,-21.8 444.55,-28.23"/>
</a>
</g>
</g>
<!-- Node11 -->
<g id="Node000011" class="node">
<title>Node11</title>
<g id="a_Node000011"><a xlink:title=" ">
<polygon fill="#e0e0e0" stroke="#999999" points="561.38,-20 518.38,-20 518.38,0 561.38,0 561.38,-20"/>
<text xml:space="preserve" text-anchor="middle" x="539.88" y="-6.5" font-family="Helvetica,sans-Serif" font-size="10.00">cmath</text>
</a>
</g>
</g>
<!-- Node2&#45;&gt;Node11 -->
<g id="edge10_Node000002_Node000011" class="edge">
<title>Node2&#45;&gt;Node11</title>
<g id="a_edge10_Node000002_Node000011"><a xlink:title=" ">
<path fill="none" stroke="#63b8ff" d="M380.97,-56.27C410.84,-47.86 457.53,-34.69 507.22,-20.46"/>
<polygon fill="#63b8ff" stroke="#63b8ff" points="508.1,-23.85 516.75,-17.73 506.17,-17.12 508.1,-23.85"/>
</a>
</g>
</g>
<!-- Node12 -->
<g id="Node000012" class="node">
<title>Node12</title>
<g id="a_Node000012"><a xlink:title=" ">
<polygon fill="#e0e0e0" stroke="#999999" points="622.75,-20 579,-20 579,0 622.75,0 622.75,-20"/>
<text xml:space="preserve" text-anchor="middle" x="600.88" y="-6.5" font-family="Helvetica,sans-Serif" font-size="10.00">format</text>
</a>
</g>
</g>
<!-- Node2&#45;&gt;Node12 -->
<g id="edge11_Node000002_Node000012" class="edge">
<title>Node2&#45;&gt;Node12</title>
<g id="a_edge11_Node000002_Node000012"><a xlink:title=" ">
<path fill="none" stroke="#63b8ff" d="M381.19,-59.55C422.09,-52.23 496.16,-38.29 567.67,-20.65"/>
<polygon fill="#63b8ff" stroke="#63b8ff" points="568.33,-24.1 577.19,-18.28 566.64,-17.3 568.33,-24.1"/>
</a>
</g>
</g>
<!-- Node13 -->
<g id="Node000013" class="node">
<title>Node13</title>
<g id="a_Node000013"><a xlink:title=" ">
<polygon fill="#e0e0e0" stroke="#999999" points="675.25,-20 640.5,-20 640.5,0 675.25,0 675.25,-20"/>
<text xml:space="preserve" text-anchor="middle" x="657.88" y="-6.5" font-family="Helvetica,sans-Serif" font-size="10.00">map</text>
</a>
</g>
</g>
<!-- Node2&#45;&gt;Node13 -->
<g id="edge12_Node000002_Node000013" class="edge">
<title>Node2&#45;&gt;Node13</title>
<g id="a_edge12_Node000002_Node000013"><a xlink:title=" ">
<path fill="none" stroke="#63b8ff" d="M381.11,-61.82C431.57,-56.31 534.2,-43.49 629.16,-20.34"/>
<polygon fill="#63b8ff" stroke="#63b8ff" points="629.77,-23.79 638.63,-17.98 628.08,-17 629.77,-23.79"/>
</a>
</g>
</g>
<!-- Node14 -->
<g id="Node000014" class="node">
<title>Node14</title>
<g id="a_Node000014"><a xlink:title=" ">
<polygon fill="#e0e0e0" stroke="#999999" points="738.5,-20 693.25,-20 693.25,0 738.5,0 738.5,-20"/>
<text xml:space="preserve" text-anchor="middle" x="715.88" y="-6.5" font-family="Helvetica,sans-Serif" font-size="10.00">chrono</text>
</a>
</g>
</g>
<!-- Node2&#45;&gt;Node14 -->
<g id="edge13_Node000002_Node000014" class="edge">
<title>Node2&#45;&gt;Node14</title>
<g id="a_edge13_Node000002_Node000014"><a xlink:title=" ">
<path fill="none" stroke="#63b8ff" d="M380.97,-62.28C438.45,-56.94 565.32,-43.69 681.67,-20.18"/>
<polygon fill="#63b8ff" stroke="#63b8ff" points="682.32,-23.62 691.42,-18.18 680.92,-16.77 682.32,-23.62"/>
</a>
</g>
</g>
<!-- Node15&#45;&gt;Node3 -->
<g id="edge15_Node000015_Node000003" class="edge">
<title>Node15&#45;&gt;Node3</title>
<g id="a_edge15_Node000015_Node000003"><a xlink:title=" ">
<path fill="none" stroke="#63b8ff" d="M108.28,-55.59C115.79,-48.08 126.52,-37.35 135.57,-28.3"/>
<polygon fill="#63b8ff" stroke="#63b8ff" points="137.91,-30.91 142.51,-21.37 132.96,-25.96 137.91,-30.91"/>
</a>
</g>
</g>
<!-- Node15&#45;&gt;Node8 -->
<g id="edge16_Node000015_Node000008" class="edge">
<title>Node15&#45;&gt;Node8</title>
<g id="a_edge16_Node000015_Node000008"><a xlink:title=" ">
<path fill="none" stroke="#63b8ff" d="M98.18,-55.59C97.69,-49.01 97.02,-39.96 96.41,-31.73"/>
<polygon fill="#63b8ff" stroke="#63b8ff" points="99.9,-31.52 95.68,-21.81 92.92,-32.04 99.9,-31.52"/>
</a>
</g>
</g>
<!-- Node15&#45;&gt;Node9 -->
<g id="edge17_Node000015_Node000009" class="edge">
<title>Node15&#45;&gt;Node9</title>
<g id="a_edge17_Node000015_Node000009"><a xlink:title=" ">
<path fill="none" stroke="#63b8ff" d="M86.51,-55.59C76.23,-47.77 61.36,-36.46 49.16,-27.19"/>
<polygon fill="#63b8ff" stroke="#63b8ff" points="51.38,-24.48 41.31,-21.21 47.15,-30.05 51.38,-24.48"/>
</a>
</g>
</g>
</g>
</svg>
