<?xml version="1.0" encoding="UTF-8" standalone="no"?>
<!DOCTYPE svg PUBLIC "-//W3C//DTD SVG 1.1//EN"
 "http://www.w3.org/Graphics/SVG/1.1/DTD/svg11.dtd">
<!-- Generated by graphviz version 14.0.5 (20251129.0259)
 -->
<!-- Title: src/include/initializer.hpp Pages: 1 -->
<svg width="317pt" height="140pt"
 viewBox="0.00 0.00 317.00 140.00" xmlns="http://www.w3.org/2000/svg" xmlns:xlink="http://www.w3.org/1999/xlink">
<g id="graph0" class="graph" transform="scale(1 1) rotate(0) translate(4 136)">
<title>src/include/initializer.hpp</title>
<!-- Node1 -->
<g id="Node000001" class="node">
<title>Node1</title>
<g id="a_Node000001"><a xlink:title="定义初始化器类，用于初始化网格、方程和边界条件">
<polygon fill="#999999" stroke="#666666" points="248,-132 124.75,-132 124.75,-112 248,-112 248,-132"/>
<text xml:space="preserve" text-anchor="middle" x="186.38" y="-118.5" font-family="Helvetica,sans-Serif" font-size="10.00">src/include/initializer.hpp</text>
</a>
</g>
</g>
<!-- Node2 -->
<g id="Node000002" class="node">
<title>Node2</title>
<g id="a_Node000002"><a xlink:href="../../dd/dcb/block_solver_8hpp.html" target="_top" xlink:title=" ">
<polygon fill="white" stroke="#666666" points="185.38,-76 49.38,-76 49.38,-56 185.38,-56 185.38,-76"/>
<text xml:space="preserve" text-anchor="middle" x="117.38" y="-62.5" font-family="Helvetica,sans-Serif" font-size="10.00">src/include/blockSolver.hpp</text>
</a>
</g>
</g>
<!-- Node1&#45;&gt;Node2 -->
<g id="edge1_Node000001_Node000002" class="edge">
<title>Node1&#45;&gt;Node2</title>
<g id="a_edge1_Node000001_Node000002"><a xlink:title=" ">
<path fill="none" stroke="#63b8ff" d="M165.52,-104.68C153.65,-95.39 139.21,-84.09 129.26,-76.3"/>
<polygon fill="#63b8ff" stroke="#63b8ff" points="163.13,-107.25 173.16,-110.66 167.45,-101.74 163.13,-107.25"/>
</a>
</g>
</g>
<!-- Node5 -->
<g id="Node000005" class="node">
<title>Node5</title>
<g id="a_Node000005"><a xlink:href="../../d5/de2/initializer_8cpp.html" target="_top" xlink:title="初始化器类的实现文件">
<polygon fill="white" stroke="#666666" points="309.38,-76 203.38,-76 203.38,-56 309.38,-56 309.38,-76"/>
<text xml:space="preserve" text-anchor="middle" x="256.38" y="-62.5" font-family="Helvetica,sans-Serif" font-size="10.00">src/src/initializer.cpp</text>
</a>
</g>
</g>
<!-- Node1&#45;&gt;Node5 -->
<g id="edge4_Node000001_Node000005" class="edge">
<title>Node1&#45;&gt;Node5</title>
<g id="a_edge4_Node000001_Node000005"><a xlink:title=" ">
<path fill="none" stroke="#63b8ff" d="M207.53,-104.68C219.57,-95.39 234.23,-84.09 244.32,-76.3"/>
<polygon fill="#63b8ff" stroke="#63b8ff" points="205.55,-101.79 199.77,-110.67 209.82,-107.33 205.55,-101.79"/>
</a>
</g>
</g>
<!-- Node3 -->
<g id="Node000003" class="node">
<title>Node3</title>
<g id="a_Node000003"><a xlink:href="../../da/d96/block_solver_8cpp.html" target="_top" xlink:title="BlockSolver类的实现文件">
<polygon fill="white" stroke="#666666" points="118.75,-20 0,-20 0,0 118.75,0 118.75,-20"/>
<text xml:space="preserve" text-anchor="middle" x="59.38" y="-6.5" font-family="Helvetica,sans-Serif" font-size="10.00">src/src/blockSolver.cpp</text>
</a>
</g>
</g>
<!-- Node2&#45;&gt;Node3 -->
<g id="edge2_Node000002_Node000003" class="edge">
<title>Node2&#45;&gt;Node3</title>
<g id="a_edge2_Node000002_Node000003"><a xlink:title=" ">
<path fill="none" stroke="#63b8ff" d="M98.95,-47.85C89.15,-38.72 77.48,-27.86 69.36,-20.3"/>
<polygon fill="#63b8ff" stroke="#63b8ff" points="96.46,-50.31 106.16,-54.56 101.23,-45.19 96.46,-50.31"/>
</a>
</g>
</g>
<!-- Node4 -->
<g id="Node000004" class="node">
<title>Node4</title>
<g id="a_Node000004"><a xlink:href="../../df/d44/zone_main_8cpp.html" target="_top" xlink:title="主程序入口文件，用于配置和运行CFD求解器">
<polygon fill="white" stroke="#666666" points="213.75,-20 137,-20 137,0 213.75,0 213.75,-20"/>
<text xml:space="preserve" text-anchor="middle" x="175.38" y="-6.5" font-family="Helvetica,sans-Serif" font-size="10.00">zoneMain.cpp</text>
</a>
</g>
</g>
<!-- Node2&#45;&gt;Node4 -->
<g id="edge3_Node000002_Node000004" class="edge">
<title>Node2&#45;&gt;Node4</title>
<g id="a_edge3_Node000002_Node000004"><a xlink:title=" ">
<path fill="none" stroke="#63b8ff" d="M135.8,-47.85C145.6,-38.72 157.27,-27.86 165.39,-20.3"/>
<polygon fill="#63b8ff" stroke="#63b8ff" points="133.52,-45.19 128.59,-54.56 138.29,-50.31 133.52,-45.19"/>
</a>
</g>
</g>
</g>
</svg>
