<?xml version="1.0" encoding="UTF-8" standalone="no"?>
<!DOCTYPE svg PUBLIC "-//W3C//DTD SVG 1.1//EN"
 "http://www.w3.org/Graphics/SVG/1.1/DTD/svg11.dtd">
<!-- Generated by graphviz version 14.0.5 (20251129.0259)
 -->
<!-- Title: symmetrytest.cpp Pages: 1 -->
<svg width="774pt" height="196pt"
 viewBox="0.00 0.00 774.00 196.00" xmlns="http://www.w3.org/2000/svg" xmlns:xlink="http://www.w3.org/1999/xlink">
<g id="graph0" class="graph" transform="scale(1 1) rotate(0) translate(4 192)">
<title>symmetrytest.cpp</title>
<!-- Node1 -->
<g id="Node000001" class="node">
<title>Node1</title>
<g id="a_Node000001"><a xlink:title="对称性测试程序实现文件">
<polygon fill="#999999" stroke="#666666" points="730,-188 635.25,-188 635.25,-168 730,-168 730,-188"/>
<text xml:space="preserve" text-anchor="middle" x="682.62" y="-174.5" font-family="Helvetica,sans-Serif" font-size="10.00">symmetrytest.cpp</text>
</a>
</g>
</g>
<!-- Node2 -->
<g id="Node000002" class="node">
<title>Node2</title>
<g id="a_Node000002"><a xlink:href="../../db/dba/eigen_system_8hpp.html" target="_top" xlink:title="定义特征系统相关的类，用于欧拉方程的特征分解">
<polygon fill="white" stroke="#666666" points="765.5,-132 673.75,-132 673.75,-112 765.5,-112 765.5,-132"/>
<text xml:space="preserve" text-anchor="middle" x="719.62" y="-118.5" font-family="Helvetica,sans-Serif" font-size="10.00">eigenSystem.hpp</text>
</a>
</g>
</g>
<!-- Node1&#45;&gt;Node2 -->
<g id="edge1_Node000001_Node000002" class="edge">
<title>Node1&#45;&gt;Node2</title>
<g id="a_edge1_Node000001_Node000002"><a xlink:title=" ">
<path fill="none" stroke="#63b8ff" d="M689.07,-167.59C693.95,-160.47 700.82,-150.45 706.8,-141.72"/>
<polygon fill="#63b8ff" stroke="#63b8ff" points="709.63,-143.77 712.4,-133.55 703.86,-139.82 709.63,-143.77"/>
</a>
</g>
</g>
<!-- Node16 -->
<g id="Node000016" class="node">
<title>Node16</title>
<g id="a_Node000016"><a xlink:href="../../d7/dcf/flux_scheme_8hpp.html" target="_top" xlink:title="定义通量格式相关的函数和类">
<polygon fill="white" stroke="#666666" points="689.88,-76 603.38,-76 603.38,-56 689.88,-56 689.88,-76"/>
<text xml:space="preserve" text-anchor="middle" x="646.62" y="-62.5" font-family="Helvetica,sans-Serif" font-size="10.00">fluxScheme.hpp</text>
</a>
</g>
</g>
<!-- Node1&#45;&gt;Node16 -->
<g id="edge16_Node000001_Node000016" class="edge">
<title>Node1&#45;&gt;Node16</title>
<g id="a_edge16_Node000001_Node000016"><a xlink:title=" ">
<path fill="none" stroke="#63b8ff" d="M678.6,-167.8C674.73,-158.79 668.87,-144.6 664.62,-132 659.63,-117.2 654.96,-100.18 651.62,-87.27"/>
<polygon fill="#63b8ff" stroke="#63b8ff" points="655.08,-86.66 649.24,-77.82 648.29,-88.37 655.08,-86.66"/>
</a>
</g>
</g>
<!-- Node3 -->
<g id="Node000003" class="node">
<title>Node3</title>
<g id="a_Node000003"><a xlink:title=" ">
<polygon fill="#e0e0e0" stroke="#999999" points="738.5,-20 700.75,-20 700.75,0 738.5,0 738.5,-20"/>
<text xml:space="preserve" text-anchor="middle" x="719.62" y="-6.5" font-family="Helvetica,sans-Serif" font-size="10.00">array</text>
</a>
</g>
</g>
<!-- Node2&#45;&gt;Node3 -->
<g id="edge2_Node000002_Node000003" class="edge">
<title>Node2&#45;&gt;Node3</title>
<g id="a_edge2_Node000002_Node000003"><a xlink:title=" ">
<path fill="none" stroke="#63b8ff" d="M719.62,-111.62C719.62,-94.01 719.62,-55.59 719.62,-31.65"/>
<polygon fill="#63b8ff" stroke="#63b8ff" points="723.13,-31.87 719.63,-21.87 716.13,-31.87 723.13,-31.87"/>
</a>
</g>
</g>
<!-- Node4 -->
<g id="Node000004" class="node">
<title>Node4</title>
<g id="a_Node000004"><a xlink:href="../../d4/dc3/macro_8hpp.html" target="_top" xlink:title="定义项目中使用的宏、枚举类型和通用函数">
<polygon fill="white" stroke="#666666" points="422.5,-76 360.75,-76 360.75,-56 422.5,-56 422.5,-76"/>
<text xml:space="preserve" text-anchor="middle" x="391.62" y="-62.5" font-family="Helvetica,sans-Serif" font-size="10.00">macro.hpp</text>
</a>
</g>
</g>
<!-- Node2&#45;&gt;Node4 -->
<g id="edge3_Node000002_Node000004" class="edge">
<title>Node2&#45;&gt;Node4</title>
<g id="a_edge3_Node000002_Node000004"><a xlink:title=" ">
<path fill="none" stroke="#63b8ff" d="M673.33,-113.38C609.62,-102.89 495.84,-84.16 434.17,-74"/>
<polygon fill="#63b8ff" stroke="#63b8ff" points="434.86,-70.57 424.42,-72.4 433.72,-77.48 434.86,-70.57"/>
</a>
</g>
</g>
<!-- Node4&#45;&gt;Node3 -->
<g id="edge4_Node000004_Node000003" class="edge">
<title>Node4&#45;&gt;Node3</title>
<g id="a_edge4_Node000004_Node000003"><a xlink:title=" ">
<path fill="none" stroke="#63b8ff" d="M422.6,-62.03C475.45,-56.6 586.53,-43.64 689.27,-20.21"/>
<polygon fill="#63b8ff" stroke="#63b8ff" points="690.04,-23.63 698.99,-17.95 688.45,-16.81 690.04,-23.63"/>
</a>
</g>
</g>
<!-- Node5 -->
<g id="Node000005" class="node">
<title>Node5</title>
<g id="a_Node000005"><a xlink:title=" ">
<polygon fill="#e0e0e0" stroke="#999999" points="477.25,-20 432,-20 432,0 477.25,0 477.25,-20"/>
<text xml:space="preserve" text-anchor="middle" x="454.62" y="-6.5" font-family="Helvetica,sans-Serif" font-size="10.00">cstring</text>
</a>
</g>
</g>
<!-- Node4&#45;&gt;Node5 -->
<g id="edge5_Node000004_Node000005" class="edge">
<title>Node4&#45;&gt;Node5</title>
<g id="a_edge5_Node000004_Node000005"><a xlink:title=" ">
<path fill="none" stroke="#63b8ff" d="M402.6,-55.59C411.54,-47.93 424.4,-36.91 435.09,-27.75"/>
<polygon fill="#63b8ff" stroke="#63b8ff" points="437.31,-30.45 442.63,-21.28 432.76,-25.13 437.31,-30.45"/>
</a>
</g>
</g>
<!-- Node6 -->
<g id="Node000006" class="node">
<title>Node6</title>
<g id="a_Node000006"><a xlink:title=" ">
<polygon fill="#e0e0e0" stroke="#999999" points="548.38,-20 494.88,-20 494.88,0 548.38,0 548.38,-20"/>
<text xml:space="preserve" text-anchor="middle" x="521.62" y="-6.5" font-family="Helvetica,sans-Serif" font-size="10.00">iostream</text>
</a>
</g>
</g>
<!-- Node4&#45;&gt;Node6 -->
<g id="edge6_Node000004_Node000006" class="edge">
<title>Node4&#45;&gt;Node6</title>
<g id="a_edge6_Node000004_Node000006"><a xlink:title=" ">
<path fill="none" stroke="#63b8ff" d="M414.27,-55.59C434.74,-47.09 465.14,-34.46 488.37,-24.81"/>
<polygon fill="#63b8ff" stroke="#63b8ff" points="489.51,-28.13 497.41,-21.06 486.83,-21.66 489.51,-28.13"/>
</a>
</g>
</g>
<!-- Node7 -->
<g id="Node000007" class="node">
<title>Node7</title>
<g id="a_Node000007"><a xlink:title=" ">
<polygon fill="#e0e0e0" stroke="#999999" points="51.25,-20 0,-20 0,0 51.25,0 51.25,-20"/>
<text xml:space="preserve" text-anchor="middle" x="25.62" y="-6.5" font-family="Helvetica,sans-Serif" font-size="10.00">memory</text>
</a>
</g>
</g>
<!-- Node4&#45;&gt;Node7 -->
<g id="edge7_Node000004_Node000007" class="edge">
<title>Node4&#45;&gt;Node7</title>
<g id="a_edge7_Node000004_Node000007"><a xlink:title=" ">
<path fill="none" stroke="#63b8ff" d="M360.39,-61.98C303.29,-56.2 178.05,-42.31 62.67,-20.19"/>
<polygon fill="#63b8ff" stroke="#63b8ff" points="63.51,-16.79 53.03,-18.31 62.18,-23.66 63.51,-16.79"/>
</a>
</g>
</g>
<!-- Node8 -->
<g id="Node000008" class="node">
<title>Node8</title>
<g id="a_Node000008"><a xlink:title=" ">
<polygon fill="#e0e0e0" stroke="#999999" points="109.62,-20 69.62,-20 69.62,0 109.62,0 109.62,-20"/>
<text xml:space="preserve" text-anchor="middle" x="89.62" y="-6.5" font-family="Helvetica,sans-Serif" font-size="10.00">string</text>
</a>
</g>
</g>
<!-- Node4&#45;&gt;Node8 -->
<g id="edge8_Node000004_Node000008" class="edge">
<title>Node4&#45;&gt;Node8</title>
<g id="a_edge8_Node000004_Node000008"><a xlink:title=" ">
<path fill="none" stroke="#63b8ff" d="M360.65,-61.31C311.72,-55.17 213.41,-41.61 121.32,-20.37"/>
<polygon fill="#63b8ff" stroke="#63b8ff" points="122.13,-16.97 111.6,-18.09 120.53,-23.78 122.13,-16.97"/>
</a>
</g>
</g>
<!-- Node9 -->
<g id="Node000009" class="node">
<title>Node9</title>
<g id="a_Node000009"><a xlink:title=" ">
<polygon fill="#e0e0e0" stroke="#999999" points="609.12,-20 566.12,-20 566.12,0 609.12,0 609.12,-20"/>
<text xml:space="preserve" text-anchor="middle" x="587.62" y="-6.5" font-family="Helvetica,sans-Serif" font-size="10.00">vector</text>
</a>
</g>
</g>
<!-- Node4&#45;&gt;Node9 -->
<g id="edge9_Node000004_Node000009" class="edge">
<title>Node4&#45;&gt;Node9</title>
<g id="a_edge9_Node000004_Node000009"><a xlink:title=" ">
<path fill="none" stroke="#63b8ff" d="M422.9,-56.79C454.1,-48.54 503.68,-35.27 554.77,-20.77"/>
<polygon fill="#63b8ff" stroke="#63b8ff" points="555.58,-24.18 564.23,-18.07 553.66,-17.45 555.58,-24.18"/>
</a>
</g>
</g>
<!-- Node10 -->
<g id="Node000010" class="node">
<title>Node10</title>
<g id="a_Node000010"><a xlink:title=" ">
<polygon fill="#e0e0e0" stroke="#999999" points="682.5,-20 626.75,-20 626.75,0 682.5,0 682.5,-20"/>
<text xml:space="preserve" text-anchor="middle" x="654.62" y="-6.5" font-family="Helvetica,sans-Serif" font-size="10.00">algorithm</text>
</a>
</g>
</g>
<!-- Node4&#45;&gt;Node10 -->
<g id="edge10_Node000004_Node000010" class="edge">
<title>Node4&#45;&gt;Node10</title>
<g id="a_edge10_Node000004_Node000010"><a xlink:title=" ">
<path fill="none" stroke="#63b8ff" d="M422.78,-59.23C464.41,-51.42 540.7,-36.78 615.37,-20.43"/>
<polygon fill="#63b8ff" stroke="#63b8ff" points="615.88,-23.9 624.89,-18.33 614.37,-17.06 615.88,-23.9"/>
</a>
</g>
</g>
<!-- Node11 -->
<g id="Node000011" class="node">
<title>Node11</title>
<g id="a_Node000011"><a xlink:title=" ">
<polygon fill="#e0e0e0" stroke="#999999" points="175.75,-20 127.5,-20 127.5,0 175.75,0 175.75,-20"/>
<text xml:space="preserve" text-anchor="middle" x="151.62" y="-6.5" font-family="Helvetica,sans-Serif" font-size="10.00">cassert</text>
</a>
</g>
</g>
<!-- Node4&#45;&gt;Node11 -->
<g id="edge11_Node000004_Node000011" class="edge">
<title>Node4&#45;&gt;Node11</title>
<g id="a_edge11_Node000004_Node000011"><a xlink:title=" ">
<path fill="none" stroke="#63b8ff" d="M360.3,-58.72C321.79,-50.89 254.22,-36.77 187.27,-20.55"/>
<polygon fill="#63b8ff" stroke="#63b8ff" points="188.11,-17.16 177.57,-18.19 186.45,-23.96 188.11,-17.16"/>
</a>
</g>
</g>
<!-- Node12 -->
<g id="Node000012" class="node">
<title>Node12</title>
<g id="a_Node000012"><a xlink:title=" ">
<polygon fill="#e0e0e0" stroke="#999999" points="237.12,-20 194.12,-20 194.12,0 237.12,0 237.12,-20"/>
<text xml:space="preserve" text-anchor="middle" x="215.62" y="-6.5" font-family="Helvetica,sans-Serif" font-size="10.00">cmath</text>
</a>
</g>
</g>
<!-- Node4&#45;&gt;Node12 -->
<g id="edge12_Node000004_Node000012" class="edge">
<title>Node4&#45;&gt;Node12</title>
<g id="a_edge12_Node000004_Node000012"><a xlink:title=" ">
<path fill="none" stroke="#63b8ff" d="M360.97,-55.59C329.43,-45.92 280.48,-30.9 248.24,-21.01"/>
<polygon fill="#63b8ff" stroke="#63b8ff" points="249.63,-17.77 239.04,-18.18 247.57,-24.46 249.63,-17.77"/>
</a>
</g>
</g>
<!-- Node13 -->
<g id="Node000013" class="node">
<title>Node13</title>
<g id="a_Node000013"><a xlink:title=" ">
<polygon fill="#e0e0e0" stroke="#999999" points="298.5,-20 254.75,-20 254.75,0 298.5,0 298.5,-20"/>
<text xml:space="preserve" text-anchor="middle" x="276.62" y="-6.5" font-family="Helvetica,sans-Serif" font-size="10.00">format</text>
</a>
</g>
</g>
<!-- Node4&#45;&gt;Node13 -->
<g id="edge13_Node000004_Node000013" class="edge">
<title>Node4&#45;&gt;Node13</title>
<g id="a_edge13_Node000004_Node000013"><a xlink:title=" ">
<path fill="none" stroke="#63b8ff" d="M371.59,-55.59C353.81,-47.24 327.56,-34.92 307.16,-25.34"/>
<polygon fill="#63b8ff" stroke="#63b8ff" points="308.72,-22.21 298.18,-21.12 305.75,-28.54 308.72,-22.21"/>
</a>
</g>
</g>
<!-- Node14 -->
<g id="Node000014" class="node">
<title>Node14</title>
<g id="a_Node000014"><a xlink:title=" ">
<polygon fill="#e0e0e0" stroke="#999999" points="351,-20 316.25,-20 316.25,0 351,0 351,-20"/>
<text xml:space="preserve" text-anchor="middle" x="333.62" y="-6.5" font-family="Helvetica,sans-Serif" font-size="10.00">map</text>
</a>
</g>
</g>
<!-- Node4&#45;&gt;Node14 -->
<g id="edge14_Node000004_Node000014" class="edge">
<title>Node4&#45;&gt;Node14</title>
<g id="a_edge14_Node000004_Node000014"><a xlink:title=" ">
<path fill="none" stroke="#63b8ff" d="M381.52,-55.59C373.37,-48.01 361.69,-37.13 351.91,-28.02"/>
<polygon fill="#63b8ff" stroke="#63b8ff" points="354.42,-25.58 344.72,-21.33 349.65,-30.71 354.42,-25.58"/>
</a>
</g>
</g>
<!-- Node15 -->
<g id="Node000015" class="node">
<title>Node15</title>
<g id="a_Node000015"><a xlink:title=" ">
<polygon fill="#e0e0e0" stroke="#999999" points="414.25,-20 369,-20 369,0 414.25,0 414.25,-20"/>
<text xml:space="preserve" text-anchor="middle" x="391.62" y="-6.5" font-family="Helvetica,sans-Serif" font-size="10.00">chrono</text>
</a>
</g>
</g>
<!-- Node4&#45;&gt;Node15 -->
<g id="edge15_Node000004_Node000015" class="edge">
<title>Node4&#45;&gt;Node15</title>
<g id="a_edge15_Node000004_Node000015"><a xlink:title=" ">
<path fill="none" stroke="#63b8ff" d="M391.62,-55.59C391.62,-49.01 391.62,-39.96 391.62,-31.73"/>
<polygon fill="#63b8ff" stroke="#63b8ff" points="395.13,-31.81 391.63,-21.81 388.13,-31.81 395.13,-31.81"/>
</a>
</g>
</g>
<!-- Node16&#45;&gt;Node3 -->
<g id="edge17_Node000016_Node000003" class="edge">
<title>Node16&#45;&gt;Node3</title>
<g id="a_edge17_Node000016_Node000003"><a xlink:title=" ">
<path fill="none" stroke="#63b8ff" d="M659.34,-55.59C670.02,-47.7 685.5,-36.24 698.11,-26.92"/>
<polygon fill="#63b8ff" stroke="#63b8ff" points="699.88,-29.96 705.84,-21.2 695.72,-24.33 699.88,-29.96"/>
</a>
</g>
</g>
<!-- Node16&#45;&gt;Node9 -->
<g id="edge18_Node000016_Node000009" class="edge">
<title>Node16&#45;&gt;Node9</title>
<g id="a_edge18_Node000016_Node000009"><a xlink:title=" ">
<path fill="none" stroke="#63b8ff" d="M636.35,-55.59C628.06,-48.01 616.18,-37.13 606.22,-28.02"/>
<polygon fill="#63b8ff" stroke="#63b8ff" points="608.64,-25.49 598.9,-21.32 603.91,-30.65 608.64,-25.49"/>
</a>
</g>
</g>
<!-- Node16&#45;&gt;Node10 -->
<g id="edge19_Node000016_Node000010" class="edge">
<title>Node16&#45;&gt;Node10</title>
<g id="a_edge19_Node000016_Node000010"><a xlink:title=" ">
<path fill="none" stroke="#63b8ff" d="M648.02,-55.59C649.01,-48.93 650.37,-39.75 651.6,-31.44"/>
<polygon fill="#63b8ff" stroke="#63b8ff" points="655.02,-32.2 653.03,-21.8 648.1,-31.17 655.02,-32.2"/>
</a>
</g>
</g>
</g>
</svg>
