<?xml version="1.0" encoding="UTF-8" standalone="no"?>
<!DOCTYPE svg PUBLIC "-//W3C//DTD SVG 1.1//EN"
 "http://www.w3.org/Graphics/SVG/1.1/DTD/svg11.dtd">
<!-- Generated by graphviz version 14.0.5 (20251129.0259)
 -->
<!-- Title: Initializer::initDoubleMachBnds Pages: 1 -->
<svg width="282pt" height="66pt"
 viewBox="0.00 0.00 282.00 66.00" xmlns="http://www.w3.org/2000/svg" xmlns:xlink="http://www.w3.org/1999/xlink">
<g id="graph0" class="graph" transform="scale(1 1) rotate(0) translate(4 62)">
<title>Initializer::initDoubleMachBnds</title>
<!-- Node1 -->
<g id="Node000001" class="node">
<title>Node1</title>
<g id="a_Node000001"><a xlink:title="初始化双马赫反射问题边界条件">
<polygon fill="#999999" stroke="#666666" points="151,-39 0,-39 0,-19 151,-19 151,-39"/>
<text xml:space="preserve" text-anchor="middle" x="75.5" y="-25.5" font-family="Helvetica,sans-Serif" font-size="10.00">Initializer::initDoubleMachBnds</text>
</a>
</g>
</g>
<!-- Node2 -->
<g id="Node000002" class="node">
<title>Node2</title>
<g id="a_Node000002"><a xlink:href="../../d4/dc3/macro_8hpp.html#aae8891b6e054c4e14f504dd3f381320a" target="_top" xlink:title="计算偏移量">
<polygon fill="white" stroke="#666666" points="258.12,-58 203.12,-58 203.12,-38 258.12,-38 258.12,-58"/>
<text xml:space="preserve" text-anchor="middle" x="230.62" y="-44.5" font-family="Helvetica,sans-Serif" font-size="10.00">calOffset</text>
</a>
</g>
</g>
<!-- Node1&#45;&gt;Node2 -->
<g id="edge1_Node000001_Node000002" class="edge">
<title>Node1&#45;&gt;Node2</title>
<g id="a_edge1_Node000001_Node000002"><a xlink:title=" ">
<path fill="none" stroke="#63b8ff" d="M151.27,-38.28C165.31,-40.02 179.42,-41.77 191.73,-43.3"/>
<polygon fill="#63b8ff" stroke="#63b8ff" points="191.06,-46.74 201.42,-44.5 191.92,-39.8 191.06,-46.74"/>
</a>
</g>
</g>
<!-- Node3 -->
<g id="Node000003" class="node">
<title>Node3</title>
<g id="a_Node000003"><a xlink:href="../../d4/dc3/macro_8hpp.html#a56cabadb0a857e1da7befbabea638357" target="_top" xlink:title="计算逆向偏移量">
<polygon fill="white" stroke="#666666" points="274.25,-20 187,-20 187,0 274.25,0 274.25,-20"/>
<text xml:space="preserve" text-anchor="middle" x="230.62" y="-6.5" font-family="Helvetica,sans-Serif" font-size="10.00">calOffsetInverse</text>
</a>
</g>
</g>
<!-- Node1&#45;&gt;Node3 -->
<g id="edge2_Node000001_Node000003" class="edge">
<title>Node1&#45;&gt;Node3</title>
<g id="a_edge2_Node000001_Node000003"><a xlink:title=" ">
<path fill="none" stroke="#63b8ff" d="M151.27,-19.72C159.43,-18.71 167.62,-17.69 175.46,-16.72"/>
<polygon fill="#63b8ff" stroke="#63b8ff" points="175.67,-20.22 185.16,-15.52 174.81,-13.27 175.67,-20.22"/>
</a>
</g>
</g>
</g>
</svg>
