<?xml version="1.0" encoding="UTF-8" standalone="no"?>
<!DOCTYPE svg PUBLIC "-//W3C//DTD SVG 1.1//EN"
 "http://www.w3.org/Graphics/SVG/1.1/DTD/svg11.dtd">
<!-- Generated by graphviz version 14.0.5 (20251129.0259)
 -->
<!-- Title: main Pages: 1 -->
<svg width="296pt" height="256pt"
 viewBox="0.00 0.00 296.00 256.00" xmlns="http://www.w3.org/2000/svg" xmlns:xlink="http://www.w3.org/1999/xlink">

<svg id="main" version="1.1" xmlns="http://www.w3.org/2000/svg" xmlns:xlink="http://www.w3.org/1999/xlink" xml:space="preserve">

<style type="text/css"><![CDATA[
.node, .edge {opacity: 0.7;}
.node.selected, .edge.selected {opacity: 1;}
.edge:hover path { stroke: red; }
.edge:hover polygon { stroke: red; fill: red; }
]]></style>
<script type="application/ecmascript" xlink:href="../../svg.min.js"/>
<svg id="graph" class="graph">
<g id="graph0" class="graph" transform="scale(1 1) rotate(0) translate(4 252)">
<title>main</title>
<!-- Node1 -->
<g id="Node000001" class="node">
<title>Node1</title>
<g id="a_Node000001"><a xlink:title="主函数">
<polygon fill="#999999" stroke="#666666" points="37,-134 0,-134 0,-114 37,-114 37,-134"/>
<text xml:space="preserve" text-anchor="middle" x="18.5" y="-120.5" font-family="Helvetica,sans-Serif" font-size="10.00">main</text>
</a>
</g>
</g>
<!-- Node2 -->
<g id="Node000002" class="node">
<title>Node2</title>
<g id="a_Node000002"><a xlink:href="../../dc/d7c/_accuracy_test_8cpp.html#a44d0ab4b73566e46a9530dc0a54eb897" target="_top" xlink:title="计算误差">
<polygon fill="white" stroke="#666666" points="123.5,-134 73,-134 73,-114 123.5,-114 123.5,-134"/>
<text xml:space="preserve" text-anchor="middle" x="98.25" y="-120.5" font-family="Helvetica,sans-Serif" font-size="10.00">getError</text>
</a>
</g>
</g>
<!-- Node1&#45;&gt;Node2 -->
<g id="edge1_Node000001_Node000002" class="edge">
<title>Node1&#45;&gt;Node2</title>
<g id="a_edge1_Node000001_Node000002"><a xlink:title=" ">
<path fill="none" stroke="#63b8ff" d="M37.14,-124C44.27,-124 52.77,-124 61.1,-124"/>
<polygon fill="#63b8ff" stroke="#63b8ff" points="61.09,-127.5 71.09,-124 61.09,-120.5 61.09,-127.5"/>
</a>
</g>
</g>
<!-- Node3 -->
<g id="Node000003" class="node">
<title>Node3</title>
<g id="a_Node000003"><a xlink:href="../../dc/d7c/_accuracy_test_8cpp.html#a7b3e4e2024848b18fa90d79c36cbb93b" target="_top" xlink:title="计算测试函数导数值">
<polygon fill="white" stroke="#666666" points="242.25,-248 205.25,-248 205.25,-228 242.25,-228 242.25,-248"/>
<text xml:space="preserve" text-anchor="middle" x="223.75" y="-234.5" font-family="Helvetica,sans-Serif" font-size="10.00">dgkx</text>
</a>
</g>
</g>
<!-- Node2&#45;&gt;Node3 -->
<g id="edge2_Node000002_Node000003" class="edge">
<title>Node2&#45;&gt;Node3</title>
<g id="a_edge2_Node000002_Node000003"><a xlink:title=" ">
<path fill="none" stroke="#63b8ff" d="M102.94,-134.29C110.47,-153.8 129.46,-196.23 159.5,-219 169.44,-226.53 182.34,-231.09 193.91,-233.85"/>
<polygon fill="#63b8ff" stroke="#63b8ff" points="192.88,-237.21 203.38,-235.75 194.26,-230.35 192.88,-237.21"/>
</a>
</g>
</g>
<!-- Node4 -->
<g id="Node000004" class="node">
<title>Node4</title>
<g id="a_Node000004"><a xlink:href="../../d1/d6e/class_space_dis.html#a3c563bda4d46190cc899af410bdc0cf7" target="_top" xlink:title="执行差分计算">
<polygon fill="white" stroke="#666666" points="277.12,-210 170.38,-210 170.38,-190 277.12,-190 277.12,-210"/>
<text xml:space="preserve" text-anchor="middle" x="223.75" y="-196.5" font-family="Helvetica,sans-Serif" font-size="10.00">SpaceDis::difference</text>
</a>
</g>
</g>
<!-- Node2&#45;&gt;Node4 -->
<g id="edge3_Node000002_Node000004" class="edge">
<title>Node2&#45;&gt;Node4</title>
<g id="a_edge3_Node000002_Node000004"><a xlink:title=" ">
<path fill="none" stroke="#63b8ff" d="M107.53,-134.38C118.24,-147.13 138.07,-168.59 159.5,-181 162.15,-182.54 164.94,-183.96 167.81,-185.27"/>
<polygon fill="#63b8ff" stroke="#63b8ff" points="166.45,-188.5 177.03,-189.01 169.08,-182.01 166.45,-188.5"/>
</a>
</g>
</g>
<!-- Node5 -->
<g id="Node000005" class="node">
<title>Node5</title>
<g id="a_Node000005"><a xlink:href="../../dc/d7c/_accuracy_test_8cpp.html#a09658b07218fdb123135467122823cc9" target="_top" xlink:title="计算测试函数值">
<polygon fill="white" stroke="#666666" points="239.62,-172 207.88,-172 207.88,-152 239.62,-152 239.62,-172"/>
<text xml:space="preserve" text-anchor="middle" x="223.75" y="-158.5" font-family="Helvetica,sans-Serif" font-size="10.00">gkx</text>
</a>
</g>
</g>
<!-- Node2&#45;&gt;Node5 -->
<g id="edge4_Node000002_Node000005" class="edge">
<title>Node2&#45;&gt;Node5</title>
<g id="a_edge4_Node000002_Node000005"><a xlink:title=" ">
<path fill="none" stroke="#63b8ff" d="M123.85,-131.84C134.76,-135.3 147.76,-139.39 159.5,-143 171.62,-146.73 185.07,-150.78 196.44,-154.18"/>
<polygon fill="#63b8ff" stroke="#63b8ff" points="195.36,-157.51 205.94,-157.02 197.36,-150.81 195.36,-157.51"/>
</a>
</g>
</g>
<!-- Node6 -->
<g id="Node000006" class="node">
<title>Node6</title>
<g id="a_Node000006"><a xlink:href="../../d1/d6e/class_space_dis.html#a7cefe594270b1fc5a3932fac4948f145" target="_top" xlink:title="设置法向量">
<polygon fill="white" stroke="#666666" points="288,-134 159.5,-134 159.5,-114 288,-114 288,-134"/>
<text xml:space="preserve" text-anchor="middle" x="223.75" y="-120.5" font-family="Helvetica,sans-Serif" font-size="10.00">SpaceDis::setConstNorm</text>
</a>
</g>
</g>
<!-- Node2&#45;&gt;Node6 -->
<g id="edge5_Node000002_Node000006" class="edge">
<title>Node2&#45;&gt;Node6</title>
<g id="a_edge5_Node000002_Node000006"><a xlink:title=" ">
<path fill="none" stroke="#63b8ff" d="M123.95,-124C131.09,-124 139.29,-124 147.84,-124"/>
<polygon fill="#63b8ff" stroke="#63b8ff" points="147.71,-127.5 157.71,-124 147.71,-120.5 147.71,-127.5"/>
</a>
</g>
</g>
<!-- Node7 -->
<g id="Node000007" class="node">
<title>Node7</title>
<g id="a_Node000007"><a xlink:href="../../d1/d6e/class_space_dis.html#a6aabd30875fee7bf06b59bc5ad4f6855" target="_top" xlink:title="设置空间维度">
<polygon fill="white" stroke="#666666" points="273.38,-96 174.12,-96 174.12,-76 273.38,-76 273.38,-96"/>
<text xml:space="preserve" text-anchor="middle" x="223.75" y="-82.5" font-family="Helvetica,sans-Serif" font-size="10.00">SpaceDis::setIDim</text>
</a>
</g>
</g>
<!-- Node2&#45;&gt;Node7 -->
<g id="edge6_Node000002_Node000007" class="edge">
<title>Node2&#45;&gt;Node7</title>
<g id="a_edge6_Node000002_Node000007"><a xlink:title=" ">
<path fill="none" stroke="#63b8ff" d="M123.85,-116.16C134.76,-112.7 147.76,-108.61 159.5,-105 165.04,-103.29 170.86,-101.52 176.64,-99.77"/>
<polygon fill="#63b8ff" stroke="#63b8ff" points="177.58,-103.14 186.15,-96.9 175.56,-96.44 177.58,-103.14"/>
</a>
</g>
</g>
<!-- Node8 -->
<g id="Node000008" class="node">
<title>Node8</title>
<g id="a_Node000008"><a xlink:href="../../d1/d6e/class_space_dis.html#a66a9a5ec5989dabd9a1e50962cdac7bc" target="_top" xlink:title="设置偏移量">
<polygon fill="white" stroke="#666666" points="276,-58 171.5,-58 171.5,-38 276,-38 276,-58"/>
<text xml:space="preserve" text-anchor="middle" x="223.75" y="-44.5" font-family="Helvetica,sans-Serif" font-size="10.00">SpaceDis::setOffset</text>
</a>
</g>
</g>
<!-- Node2&#45;&gt;Node8 -->
<g id="edge7_Node000002_Node000008" class="edge">
<title>Node2&#45;&gt;Node8</title>
<g id="a_edge7_Node000002_Node000008"><a xlink:title=" ">
<path fill="none" stroke="#63b8ff" d="M107.53,-113.62C118.24,-100.87 138.07,-79.41 159.5,-67 162.15,-65.46 164.94,-64.04 167.81,-62.73"/>
<polygon fill="#63b8ff" stroke="#63b8ff" points="169.08,-65.99 177.03,-58.99 166.45,-59.5 169.08,-65.99"/>
</a>
</g>
</g>
<!-- Node9 -->
<g id="Node000009" class="node">
<title>Node9</title>
<g id="a_Node000009"><a xlink:href="../../dc/d07/class_data.html#a8aa18eb21e69ff516764c1f2da4adea7" target="_top" xlink:title="将数据设置为零">
<polygon fill="white" stroke="#666666" points="264.38,-20 183.12,-20 183.12,0 264.38,0 264.38,-20"/>
<text xml:space="preserve" text-anchor="middle" x="223.75" y="-6.5" font-family="Helvetica,sans-Serif" font-size="10.00">Data::setZeros</text>
</a>
</g>
</g>
<!-- Node2&#45;&gt;Node9 -->
<g id="edge8_Node000002_Node000009" class="edge">
<title>Node2&#45;&gt;Node9</title>
<g id="a_edge8_Node000002_Node000009"><a xlink:title=" ">
<path fill="none" stroke="#63b8ff" d="M102.94,-113.71C110.47,-94.2 129.46,-51.77 159.5,-29 163.46,-26 167.9,-23.47 172.53,-21.33"/>
<polygon fill="#63b8ff" stroke="#63b8ff" points="173.44,-24.73 181.47,-17.82 170.89,-18.22 173.44,-24.73"/>
</a>
</g>
</g>
</g>
</svg>
</svg>

<style type='text/css'>
<![CDATA[
[data-mouse-over-selected='false'] { opacity: 0.7; }
[data-mouse-over-selected='true']  { opacity: 1.0; }
]]>
</style>
<script type="application/ecmascript"><![CDATA[
document.addEventListener('DOMContentLoaded', (event) => {
  highlightEdges();
  highlightAdjacentNodes();
});
]]></script>
</svg>
