<?xml version="1.0" encoding="UTF-8" standalone="no"?>
<!DOCTYPE svg PUBLIC "-//W3C//DTD SVG 1.1//EN"
 "http://www.w3.org/Graphics/SVG/1.1/DTD/svg11.dtd">
<!-- Generated by graphviz version 14.0.5 (20251129.0259)
 -->
<!-- Title: BlockSolver::stepsLoop Pages: 1 -->
<svg width="285pt" height="104pt"
 viewBox="0.00 0.00 285.00 104.00" xmlns="http://www.w3.org/2000/svg" xmlns:xlink="http://www.w3.org/1999/xlink">
<g id="graph0" class="graph" transform="scale(1 1) rotate(0) translate(4 100)">
<title>BlockSolver::stepsLoop</title>
<!-- Node1 -->
<g id="Node000001" class="node">
<title>Node1</title>
<g id="a_Node000001"><a xlink:title="时间步循环">
<polygon fill="#999999" stroke="#666666" points="119.5,-58 0,-58 0,-38 119.5,-38 119.5,-58"/>
<text xml:space="preserve" text-anchor="middle" x="59.75" y="-44.5" font-family="Helvetica,sans-Serif" font-size="10.00">BlockSolver::stepsLoop</text>
</a>
</g>
</g>
<!-- Node2 -->
<g id="Node000002" class="node">
<title>Node2</title>
<g id="a_Node000002"><a xlink:href="../../d0/d8e/class_block_solver.html#a0f29b8074f5d43e176ac656f084a025d" target="_top" xlink:title="输出网格信息">
<polygon fill="white" stroke="#666666" points="276.12,-96 156.62,-96 156.62,-76 276.12,-76 276.12,-96"/>
<text xml:space="preserve" text-anchor="middle" x="216.38" y="-82.5" font-family="Helvetica,sans-Serif" font-size="10.00">BlockSolver::outputGrid</text>
</a>
</g>
</g>
<!-- Node1&#45;&gt;Node2 -->
<g id="edge1_Node000001_Node000002" class="edge">
<title>Node1&#45;&gt;Node2</title>
<g id="a_edge1_Node000001_Node000002"><a xlink:title=" ">
<path fill="none" stroke="#63b8ff" d="M103.41,-58.48C121.49,-62.93 142.77,-68.16 161.89,-72.85"/>
<polygon fill="#63b8ff" stroke="#63b8ff" points="160.84,-76.2 171.38,-75.19 162.51,-69.4 160.84,-76.2"/>
</a>
</g>
</g>
<!-- Node3 -->
<g id="Node000003" class="node">
<title>Node3</title>
<g id="a_Node000003"><a xlink:href="../../d0/d8e/class_block_solver.html#a21dc82d623d574bee297b9a57006a8b4" target="_top" xlink:title="输出原始变量">
<polygon fill="white" stroke="#666666" points="277.25,-58 155.5,-58 155.5,-38 277.25,-38 277.25,-58"/>
<text xml:space="preserve" text-anchor="middle" x="216.38" y="-44.5" font-family="Helvetica,sans-Serif" font-size="10.00">BlockSolver::outputPrim</text>
</a>
</g>
</g>
<!-- Node1&#45;&gt;Node3 -->
<g id="edge2_Node000001_Node000003" class="edge">
<title>Node1&#45;&gt;Node3</title>
<g id="a_edge2_Node000001_Node000003"><a xlink:title=" ">
<path fill="none" stroke="#63b8ff" d="M119.65,-48C127.54,-48 135.7,-48 143.78,-48"/>
<polygon fill="#63b8ff" stroke="#63b8ff" points="143.59,-51.5 153.59,-48 143.59,-44.5 143.59,-51.5"/>
</a>
</g>
</g>
<!-- Node4 -->
<g id="Node000004" class="node">
<title>Node4</title>
<g id="a_Node000004"><a xlink:href="../../d0/d8e/class_block_solver.html#ae372dfb8d712322916273f5352d17096" target="_top" xlink:title="执行求解过程">
<polygon fill="white" stroke="#666666" points="265.25,-20 167.5,-20 167.5,0 265.25,0 265.25,-20"/>
<text xml:space="preserve" text-anchor="middle" x="216.38" y="-6.5" font-family="Helvetica,sans-Serif" font-size="10.00">BlockSolver::solve</text>
</a>
</g>
</g>
<!-- Node1&#45;&gt;Node4 -->
<g id="edge3_Node000001_Node000004" class="edge">
<title>Node1&#45;&gt;Node4</title>
<g id="a_edge3_Node000001_Node000004"><a xlink:title=" ">
<path fill="none" stroke="#63b8ff" d="M103.41,-37.52C121.49,-33.07 142.77,-27.84 161.89,-23.15"/>
<polygon fill="#63b8ff" stroke="#63b8ff" points="162.51,-26.6 171.38,-20.81 160.84,-19.8 162.51,-26.6"/>
</a>
</g>
</g>
</g>
</svg>
