<?xml version="1.0" encoding="UTF-8" standalone="no"?>
<!DOCTYPE svg PUBLIC "-//W3C//DTD SVG 1.1//EN"
 "http://www.w3.org/Graphics/SVG/1.1/DTD/svg11.dtd">
<!-- Generated by graphviz version 14.0.5 (20251129.0259)
 -->
<!-- Title: THINC Pages: 1 -->
<svg width="185pt" height="28pt"
 viewBox="0.00 0.00 185.00 28.00" xmlns="http://www.w3.org/2000/svg" xmlns:xlink="http://www.w3.org/1999/xlink">
<g id="graph0" class="graph" transform="scale(1 1) rotate(0) translate(4 24)">
<title>THINC</title>
<!-- Node1 -->
<g id="Node000001" class="node">
<title>Node1</title>
<g id="a_Node000001"><a xlink:title=" ">
<polygon fill="#999999" stroke="#666666" points="47.5,-20 0,-20 0,0 47.5,0 47.5,-20"/>
<text xml:space="preserve" text-anchor="middle" x="23.75" y="-6.5" font-family="Helvetica,sans-Serif" font-size="10.00">THINC</text>
</a>
</g>
</g>
<!-- Node2 -->
<g id="Node000002" class="node">
<title>Node2</title>
<g id="a_Node000002"><a xlink:href="../../d9/dfa/exact_sol_burgers_2main_8cpp.html#a0ccf2c2ad9f3225b701704972316dd3a" target="_top" xlink:title=" ">
<polygon fill="white" stroke="#666666" points="112.3,-20 83.5,-20 83.5,0 112.3,0 112.3,-20"/>
<text xml:space="preserve" text-anchor="middle" x="97.9" y="-6.5" font-family="Helvetica,sans-Serif" font-size="10.00">f</text>
</a>
</g>
</g>
<!-- Node1&#45;&gt;Node2 -->
<g id="edge1_Node000001_Node000002" class="edge">
<title>Node1&#45;&gt;Node2</title>
<g id="a_edge1_Node000001_Node000002"><a xlink:title=" ">
<path fill="none" stroke="#63b8ff" d="M47.98,-10C55.65,-10 64.22,-10 72.02,-10"/>
<polygon fill="#63b8ff" stroke="#63b8ff" points="71.88,-13.5 81.88,-10 71.88,-6.5 71.88,-13.5"/>
</a>
</g>
</g>
<!-- Node3 -->
<g id="Node000003" class="node">
<title>Node3</title>
<g id="a_Node000003"><a xlink:href="../../d9/dfa/exact_sol_burgers_2main_8cpp.html#af503194182429c20a0abdf6573b2320e" target="_top" xlink:title=" ">
<polygon fill="white" stroke="#666666" points="177.1,-20 148.3,-20 148.3,0 177.1,0 177.1,-20"/>
<text xml:space="preserve" text-anchor="middle" x="162.7" y="-6.5" font-family="Helvetica,sans-Serif" font-size="10.00">u0</text>
</a>
</g>
</g>
<!-- Node2&#45;&gt;Node3 -->
<g id="edge2_Node000002_Node000003" class="edge">
<title>Node2&#45;&gt;Node3</title>
<g id="a_edge2_Node000002_Node000003"><a xlink:title=" ">
<path fill="none" stroke="#63b8ff" d="M112.53,-10C119.6,-10 128.48,-10 136.73,-10"/>
<polygon fill="#63b8ff" stroke="#63b8ff" points="136.59,-13.5 146.59,-10 136.59,-6.5 136.59,-13.5"/>
</a>
</g>
</g>
</g>
</svg>
