<?xml version="1.0" encoding="UTF-8" standalone="no"?>
<!DOCTYPE svg PUBLIC "-//W3C//DTD SVG 1.1//EN"
 "http://www.w3.org/Graphics/SVG/1.1/DTD/svg11.dtd">
<!-- Generated by graphviz version 14.0.5 (20251129.0259)
 -->
<!-- Title: SpaceDis::setOffset Pages: 1 -->
<svg width="339pt" height="66pt"
 viewBox="0.00 0.00 339.00 66.00" xmlns="http://www.w3.org/2000/svg" xmlns:xlink="http://www.w3.org/1999/xlink">
<g id="graph0" class="graph" transform="scale(1 1) rotate(0) translate(4 62)">
<title>SpaceDis::setOffset</title>
<!-- Node1 -->
<g id="Node000001" class="node">
<title>Node1</title>
<g id="a_Node000001"><a xlink:title="设置偏移量">
<polygon fill="#999999" stroke="#666666" points="330.75,-39 226.25,-39 226.25,-19 330.75,-19 330.75,-39"/>
<text xml:space="preserve" text-anchor="middle" x="278.5" y="-25.5" font-family="Helvetica,sans-Serif" font-size="10.00">SpaceDis::setOffset</text>
</a>
</g>
</g>
<!-- Node2 -->
<g id="Node000002" class="node">
<title>Node2</title>
<g id="a_Node000002"><a xlink:href="../../dc/d7c/_accuracy_test_8cpp.html#a44d0ab4b73566e46a9530dc0a54eb897" target="_top" xlink:title="计算误差">
<polygon fill="white" stroke="#666666" points="156.88,-58 106.38,-58 106.38,-38 156.88,-38 156.88,-58"/>
<text xml:space="preserve" text-anchor="middle" x="131.62" y="-44.5" font-family="Helvetica,sans-Serif" font-size="10.00">getError</text>
</a>
</g>
</g>
<!-- Node1&#45;&gt;Node2 -->
<g id="edge1_Node000001_Node000002" class="edge">
<title>Node1&#45;&gt;Node2</title>
<g id="a_edge1_Node000001_Node000002"><a xlink:title=" ">
<path fill="none" stroke="#63b8ff" d="M214.84,-37.22C194.46,-39.89 173.03,-42.7 157.16,-44.78"/>
<polygon fill="#63b8ff" stroke="#63b8ff" points="215.05,-40.72 224.51,-35.95 214.14,-33.78 215.05,-40.72"/>
</a>
</g>
</g>
<!-- Node4 -->
<g id="Node000004" class="node">
<title>Node4</title>
<g id="a_Node000004"><a xlink:href="../../d2/d7f/class_sp_distributor.html#af7d75f4c83a85db9e4b1e1824e62f238" target="_top" xlink:title="求解右手端">
<polygon fill="white" stroke="#666666" points="190.25,-20 73,-20 73,0 190.25,0 190.25,-20"/>
<text xml:space="preserve" text-anchor="middle" x="131.62" y="-6.5" font-family="Helvetica,sans-Serif" font-size="10.00">SpDistributor::rhsSolve</text>
</a>
</g>
</g>
<!-- Node1&#45;&gt;Node4 -->
<g id="edge3_Node000001_Node000004" class="edge">
<title>Node1&#45;&gt;Node4</title>
<g id="a_edge3_Node000001_Node000004"><a xlink:title=" ">
<path fill="none" stroke="#63b8ff" d="M214.72,-20.77C206.62,-19.7 198.36,-18.62 190.36,-17.57"/>
<polygon fill="#63b8ff" stroke="#63b8ff" points="214.14,-24.22 224.51,-22.05 215.05,-17.28 214.14,-24.22"/>
</a>
</g>
</g>
<!-- Node3 -->
<g id="Node000003" class="node">
<title>Node3</title>
<g id="a_Node000003"><a xlink:href="../../dc/d7c/_accuracy_test_8cpp.html#ae66f6b31b5ad750f1fe042a706a4e3d4" target="_top" xlink:title="主函数">
<polygon fill="white" stroke="#666666" points="37,-58 0,-58 0,-38 37,-38 37,-58"/>
<text xml:space="preserve" text-anchor="middle" x="18.5" y="-44.5" font-family="Helvetica,sans-Serif" font-size="10.00">main</text>
</a>
</g>
</g>
<!-- Node2&#45;&gt;Node3 -->
<g id="edge2_Node000002_Node000003" class="edge">
<title>Node2&#45;&gt;Node3</title>
<g id="a_edge2_Node000002_Node000003"><a xlink:title=" ">
<path fill="none" stroke="#63b8ff" d="M94.56,-48C75.35,-48 52.57,-48 37.19,-48"/>
<polygon fill="#63b8ff" stroke="#63b8ff" points="94.45,-51.5 104.45,-48 94.45,-44.5 94.45,-51.5"/>
</a>
</g>
</g>
</g>
</svg>
